<?xml version="1.0" standalone="no"?>
<!DOCTYPE svg PUBLIC "-//W3C//DTD SVG 20010904//EN"
 "http://www.w3.org/TR/2001/REC-SVG-20010904/DTD/svg10.dtd">
<svg version="1.0" xmlns="http://www.w3.org/2000/svg"
 width="60.000000pt" height="60.000000pt" viewBox="0 0 60.000000 60.000000"
 preserveAspectRatio="xMidYMid meet">
<metadata>
Created by potrace 1.16, written by Peter Selinger 2001-2019
</metadata>
<g transform="translate(0.000000,60.000000) scale(0.100000,-0.100000)"
fill="#000000" stroke="none">
<path d="M367 463 c-4 -3 -28 -12 -54 -20 -47 -13 -48 -13 -8 -9 l40 5 -97
-95 c-54 -52 -101 -106 -104 -120 -8 -31 4 -96 16 -89 6 3 7 -1 4 -9 -7 -19
30 -56 59 -56 12 0 33 -9 47 -19 24 -19 25 -19 48 0 14 10 35 19 47 19 23 0
75 51 75 73 0 7 -4 6 -10 -3 -8 -11 -11 8 -11 65 0 153 -6 220 -20 243 -14 23
-21 26 -32 15z"/>
</g>
</svg>
